<svg width="24" height="24" version="1.1" viewBox="0 0 24 24" xmlns="http://www.w3.org/2000/svg"><g transform="translate(-66.984 -152)"><path d="m81.472 166.45h4.2506v4.6576h-4.2506v-4.6576zm-4.8761-5e-4h4.2506v4.6576h-4.2506v-4.6576zm-4.8257 0.0311h4.2506v4.6576h-4.2506v-4.6576zm9.7055-5.1732h4.2506v4.6576h-4.2506v-4.6576zm-4.8761-5.1e-4h4.2506v4.6576h-4.2506v-4.6576zm-4.8257 0.0311h4.2506v4.6576h-4.2506v-4.6576zm9.7038-5.2063h4.2506v4.6576h-4.2506v-4.6576zm-4.8761-5.1e-4h4.2506v4.6576h-4.2506v-4.6576zm-4.8257 0.0311h4.2506v4.6576h-4.2506v-4.6576z" fill="#444"/><path d="m89.959 163.58c0.26888 7.6295-8.5882 13.242-15.448 10.113-7.1353-2.5011-9.2899-12.785-3.6247-17.853 5.2076-5.4964 15.501-3.5554 18.222 3.5513l0.63578 2.0535z" fill="none" stroke="#444" stroke-linecap="round" stroke-linejoin="round" stroke-width="1.319"/></g></svg>
